G04 EAGLE Gerber X2 export*
%TF.Part,Single*%
%TF.FileFunction,Copper,L1,Top,Mixed*%
%TF.FilePolarity,Positive*%
%TF.GenerationSoftware,Autodesk,EAGLE,9.0.1*%
%TF.CreationDate,2018-06-07T21:36:32Z*%
G75*
%MOMM*%
%FSLAX34Y34*%
%LPD*%
%AMOC8*
5,1,8,0,0,1.08239X$1,22.5*%
G01*
%ADD10C,0.152400*%
%ADD11C,0.070000*%
%ADD12C,0.740000*%
%ADD13C,1.981200*%
%ADD14R,0.380000X1.050000*%


D10*
X54102Y44958D02*
X59521Y28702D01*
X64939Y44958D01*
X74110Y44958D02*
X74110Y28702D01*
X69594Y44958D02*
X78625Y44958D01*
X84183Y40442D02*
X84183Y33218D01*
X84183Y40442D02*
X84185Y40575D01*
X84191Y40707D01*
X84201Y40839D01*
X84214Y40971D01*
X84232Y41103D01*
X84253Y41233D01*
X84278Y41364D01*
X84307Y41493D01*
X84340Y41621D01*
X84376Y41749D01*
X84416Y41875D01*
X84460Y42000D01*
X84508Y42124D01*
X84559Y42246D01*
X84614Y42367D01*
X84672Y42486D01*
X84734Y42604D01*
X84799Y42719D01*
X84868Y42833D01*
X84939Y42944D01*
X85015Y43053D01*
X85093Y43160D01*
X85174Y43265D01*
X85259Y43367D01*
X85346Y43467D01*
X85436Y43564D01*
X85529Y43659D01*
X85625Y43750D01*
X85723Y43839D01*
X85824Y43925D01*
X85928Y44008D01*
X86034Y44088D01*
X86142Y44164D01*
X86252Y44238D01*
X86365Y44308D01*
X86479Y44375D01*
X86596Y44438D01*
X86714Y44498D01*
X86834Y44555D01*
X86956Y44608D01*
X87079Y44657D01*
X87203Y44703D01*
X87329Y44745D01*
X87456Y44783D01*
X87584Y44818D01*
X87713Y44849D01*
X87842Y44876D01*
X87973Y44899D01*
X88104Y44919D01*
X88236Y44934D01*
X88368Y44946D01*
X88500Y44954D01*
X88633Y44958D01*
X88765Y44958D01*
X88898Y44954D01*
X89030Y44946D01*
X89162Y44934D01*
X89294Y44919D01*
X89425Y44899D01*
X89556Y44876D01*
X89685Y44849D01*
X89814Y44818D01*
X89942Y44783D01*
X90069Y44745D01*
X90195Y44703D01*
X90319Y44657D01*
X90442Y44608D01*
X90564Y44555D01*
X90684Y44498D01*
X90802Y44438D01*
X90919Y44375D01*
X91033Y44308D01*
X91146Y44238D01*
X91256Y44164D01*
X91364Y44088D01*
X91470Y44008D01*
X91574Y43925D01*
X91675Y43839D01*
X91773Y43750D01*
X91869Y43659D01*
X91962Y43564D01*
X92052Y43467D01*
X92139Y43367D01*
X92224Y43265D01*
X92305Y43160D01*
X92383Y43053D01*
X92459Y42944D01*
X92530Y42833D01*
X92599Y42719D01*
X92664Y42604D01*
X92726Y42486D01*
X92784Y42367D01*
X92839Y42246D01*
X92890Y42124D01*
X92938Y42000D01*
X92982Y41875D01*
X93022Y41749D01*
X93058Y41621D01*
X93091Y41493D01*
X93120Y41364D01*
X93145Y41233D01*
X93166Y41103D01*
X93184Y40971D01*
X93197Y40839D01*
X93207Y40707D01*
X93213Y40575D01*
X93215Y40442D01*
X93215Y33218D01*
X93213Y33085D01*
X93207Y32953D01*
X93197Y32821D01*
X93184Y32689D01*
X93166Y32557D01*
X93145Y32427D01*
X93120Y32296D01*
X93091Y32167D01*
X93058Y32039D01*
X93022Y31911D01*
X92982Y31785D01*
X92938Y31660D01*
X92890Y31536D01*
X92839Y31414D01*
X92784Y31293D01*
X92726Y31174D01*
X92664Y31056D01*
X92599Y30941D01*
X92530Y30827D01*
X92459Y30716D01*
X92383Y30607D01*
X92305Y30500D01*
X92224Y30395D01*
X92139Y30293D01*
X92052Y30193D01*
X91962Y30096D01*
X91869Y30001D01*
X91773Y29910D01*
X91675Y29821D01*
X91574Y29735D01*
X91470Y29652D01*
X91364Y29572D01*
X91256Y29496D01*
X91146Y29422D01*
X91033Y29352D01*
X90919Y29285D01*
X90802Y29222D01*
X90684Y29162D01*
X90564Y29105D01*
X90442Y29052D01*
X90319Y29003D01*
X90195Y28957D01*
X90069Y28915D01*
X89942Y28877D01*
X89814Y28842D01*
X89685Y28811D01*
X89556Y28784D01*
X89425Y28761D01*
X89294Y28741D01*
X89162Y28726D01*
X89030Y28714D01*
X88898Y28706D01*
X88765Y28702D01*
X88633Y28702D01*
X88500Y28706D01*
X88368Y28714D01*
X88236Y28726D01*
X88104Y28741D01*
X87973Y28761D01*
X87842Y28784D01*
X87713Y28811D01*
X87584Y28842D01*
X87456Y28877D01*
X87329Y28915D01*
X87203Y28957D01*
X87079Y29003D01*
X86956Y29052D01*
X86834Y29105D01*
X86714Y29162D01*
X86596Y29222D01*
X86479Y29285D01*
X86365Y29352D01*
X86252Y29422D01*
X86142Y29496D01*
X86034Y29572D01*
X85928Y29652D01*
X85824Y29735D01*
X85723Y29821D01*
X85625Y29910D01*
X85529Y30001D01*
X85436Y30096D01*
X85346Y30193D01*
X85259Y30293D01*
X85174Y30395D01*
X85093Y30500D01*
X85015Y30607D01*
X84939Y30716D01*
X84868Y30827D01*
X84799Y30941D01*
X84734Y31056D01*
X84672Y31174D01*
X84614Y31293D01*
X84559Y31414D01*
X84508Y31536D01*
X84460Y31660D01*
X84416Y31785D01*
X84376Y31911D01*
X84340Y32039D01*
X84307Y32167D01*
X84278Y32296D01*
X84253Y32427D01*
X84232Y32557D01*
X84214Y32689D01*
X84201Y32821D01*
X84191Y32953D01*
X84185Y33085D01*
X84183Y33218D01*
X109541Y28702D02*
X109541Y44958D01*
X107734Y28702D02*
X111347Y28702D01*
X111347Y44958D02*
X107734Y44958D01*
X117912Y39539D02*
X117912Y28702D01*
X117912Y39539D02*
X122428Y39539D01*
X122532Y39537D01*
X122635Y39531D01*
X122739Y39521D01*
X122842Y39507D01*
X122944Y39489D01*
X123045Y39468D01*
X123146Y39442D01*
X123245Y39413D01*
X123344Y39380D01*
X123441Y39343D01*
X123536Y39302D01*
X123630Y39258D01*
X123722Y39210D01*
X123812Y39159D01*
X123901Y39104D01*
X123987Y39046D01*
X124070Y38984D01*
X124152Y38920D01*
X124230Y38852D01*
X124306Y38782D01*
X124380Y38709D01*
X124450Y38632D01*
X124518Y38554D01*
X124582Y38472D01*
X124644Y38389D01*
X124702Y38303D01*
X124757Y38214D01*
X124808Y38124D01*
X124856Y38032D01*
X124900Y37938D01*
X124941Y37843D01*
X124978Y37746D01*
X125011Y37647D01*
X125040Y37548D01*
X125066Y37447D01*
X125087Y37346D01*
X125105Y37244D01*
X125119Y37141D01*
X125129Y37037D01*
X125135Y36934D01*
X125137Y36830D01*
X125137Y28702D01*
X134707Y28702D02*
X138319Y28702D01*
X134707Y28702D02*
X134606Y28704D01*
X134505Y28710D01*
X134404Y28719D01*
X134303Y28732D01*
X134203Y28749D01*
X134104Y28770D01*
X134006Y28794D01*
X133909Y28822D01*
X133812Y28854D01*
X133717Y28889D01*
X133624Y28928D01*
X133532Y28970D01*
X133441Y29016D01*
X133353Y29065D01*
X133266Y29117D01*
X133181Y29173D01*
X133098Y29231D01*
X133018Y29293D01*
X132940Y29358D01*
X132864Y29425D01*
X132791Y29495D01*
X132721Y29568D01*
X132654Y29644D01*
X132589Y29722D01*
X132527Y29802D01*
X132469Y29885D01*
X132413Y29970D01*
X132361Y30056D01*
X132312Y30145D01*
X132266Y30236D01*
X132224Y30328D01*
X132185Y30421D01*
X132150Y30516D01*
X132118Y30613D01*
X132090Y30710D01*
X132066Y30808D01*
X132045Y30907D01*
X132028Y31007D01*
X132015Y31108D01*
X132006Y31209D01*
X132000Y31310D01*
X131998Y31411D01*
X131998Y36830D01*
X132000Y36931D01*
X132006Y37032D01*
X132015Y37133D01*
X132028Y37234D01*
X132045Y37334D01*
X132066Y37433D01*
X132090Y37531D01*
X132118Y37628D01*
X132150Y37725D01*
X132185Y37820D01*
X132224Y37913D01*
X132266Y38005D01*
X132312Y38096D01*
X132361Y38185D01*
X132413Y38271D01*
X132469Y38356D01*
X132527Y38439D01*
X132589Y38519D01*
X132654Y38597D01*
X132721Y38673D01*
X132791Y38746D01*
X132864Y38816D01*
X132940Y38883D01*
X133018Y38948D01*
X133098Y39010D01*
X133181Y39068D01*
X133266Y39124D01*
X133353Y39176D01*
X133441Y39225D01*
X133532Y39271D01*
X133624Y39313D01*
X133717Y39352D01*
X133812Y39387D01*
X133909Y39419D01*
X134006Y39447D01*
X134104Y39471D01*
X134203Y39492D01*
X134303Y39509D01*
X134404Y39522D01*
X134505Y39531D01*
X134606Y39537D01*
X134707Y39539D01*
X138319Y39539D01*
X143478Y29605D02*
X143478Y28702D01*
X143478Y29605D02*
X144381Y29605D01*
X144381Y28702D01*
X143478Y28702D01*
D11*
X388950Y221300D02*
X395250Y221300D01*
X388950Y221300D02*
X388950Y224100D01*
X395250Y224100D01*
X395250Y221300D01*
X395250Y221999D02*
X388950Y221999D01*
X388950Y222698D02*
X395250Y222698D01*
X395250Y223397D02*
X388950Y223397D01*
X388950Y224096D02*
X395250Y224096D01*
X395250Y214800D02*
X388950Y214800D01*
X388950Y217600D01*
X395250Y217600D01*
X395250Y214800D01*
X395250Y215499D02*
X388950Y215499D01*
X388950Y216198D02*
X395250Y216198D01*
X395250Y216897D02*
X388950Y216897D01*
X388950Y217596D02*
X395250Y217596D01*
X395250Y208300D02*
X388950Y208300D01*
X388950Y211100D01*
X395250Y211100D01*
X395250Y208300D01*
X395250Y208999D02*
X388950Y208999D01*
X388950Y209698D02*
X395250Y209698D01*
X395250Y210397D02*
X388950Y210397D01*
X388950Y211096D02*
X395250Y211096D01*
X395250Y201800D02*
X388950Y201800D01*
X388950Y204600D01*
X395250Y204600D01*
X395250Y201800D01*
X395250Y202499D02*
X388950Y202499D01*
X388950Y203198D02*
X395250Y203198D01*
X395250Y203897D02*
X388950Y203897D01*
X388950Y204596D02*
X395250Y204596D01*
X395250Y195300D02*
X388950Y195300D01*
X388950Y198100D01*
X395250Y198100D01*
X395250Y195300D01*
X395250Y195999D02*
X388950Y195999D01*
X388950Y196698D02*
X395250Y196698D01*
X395250Y197397D02*
X388950Y197397D01*
X388950Y198096D02*
X395250Y198096D01*
X395250Y188800D02*
X388950Y188800D01*
X388950Y191600D01*
X395250Y191600D01*
X395250Y188800D01*
X395250Y189499D02*
X388950Y189499D01*
X388950Y190198D02*
X395250Y190198D01*
X395250Y190897D02*
X388950Y190897D01*
X388950Y191596D02*
X395250Y191596D01*
X395250Y182300D02*
X388950Y182300D01*
X388950Y185100D01*
X395250Y185100D01*
X395250Y182300D01*
X395250Y182999D02*
X388950Y182999D01*
X388950Y183698D02*
X395250Y183698D01*
X395250Y184397D02*
X388950Y184397D01*
X388950Y185096D02*
X395250Y185096D01*
X398200Y173050D02*
X401000Y173050D01*
X398200Y173050D02*
X398200Y179350D01*
X401000Y179350D01*
X401000Y173050D01*
X401000Y173749D02*
X398200Y173749D01*
X398200Y174448D02*
X401000Y174448D01*
X401000Y175147D02*
X398200Y175147D01*
X398200Y175846D02*
X401000Y175846D01*
X401000Y176545D02*
X398200Y176545D01*
X398200Y177244D02*
X401000Y177244D01*
X401000Y177943D02*
X398200Y177943D01*
X398200Y178642D02*
X401000Y178642D01*
X401000Y179341D02*
X398200Y179341D01*
X404700Y173050D02*
X407500Y173050D01*
X404700Y173050D02*
X404700Y179350D01*
X407500Y179350D01*
X407500Y173050D01*
X407500Y173749D02*
X404700Y173749D01*
X404700Y174448D02*
X407500Y174448D01*
X407500Y175147D02*
X404700Y175147D01*
X404700Y175846D02*
X407500Y175846D01*
X407500Y176545D02*
X404700Y176545D01*
X404700Y177244D02*
X407500Y177244D01*
X407500Y177943D02*
X404700Y177943D01*
X404700Y178642D02*
X407500Y178642D01*
X407500Y179341D02*
X404700Y179341D01*
X411200Y173050D02*
X414000Y173050D01*
X411200Y173050D02*
X411200Y179350D01*
X414000Y179350D01*
X414000Y173050D01*
X414000Y173749D02*
X411200Y173749D01*
X411200Y174448D02*
X414000Y174448D01*
X414000Y175147D02*
X411200Y175147D01*
X411200Y175846D02*
X414000Y175846D01*
X414000Y176545D02*
X411200Y176545D01*
X411200Y177244D02*
X414000Y177244D01*
X414000Y177943D02*
X411200Y177943D01*
X411200Y178642D02*
X414000Y178642D01*
X414000Y179341D02*
X411200Y179341D01*
X417700Y173050D02*
X420500Y173050D01*
X417700Y173050D02*
X417700Y179350D01*
X420500Y179350D01*
X420500Y173050D01*
X420500Y173749D02*
X417700Y173749D01*
X417700Y174448D02*
X420500Y174448D01*
X420500Y175147D02*
X417700Y175147D01*
X417700Y175846D02*
X420500Y175846D01*
X420500Y176545D02*
X417700Y176545D01*
X417700Y177244D02*
X420500Y177244D01*
X420500Y177943D02*
X417700Y177943D01*
X417700Y178642D02*
X420500Y178642D01*
X420500Y179341D02*
X417700Y179341D01*
X424200Y173050D02*
X427000Y173050D01*
X424200Y173050D02*
X424200Y179350D01*
X427000Y179350D01*
X427000Y173050D01*
X427000Y173749D02*
X424200Y173749D01*
X424200Y174448D02*
X427000Y174448D01*
X427000Y175147D02*
X424200Y175147D01*
X424200Y175846D02*
X427000Y175846D01*
X427000Y176545D02*
X424200Y176545D01*
X424200Y177244D02*
X427000Y177244D01*
X427000Y177943D02*
X424200Y177943D01*
X424200Y178642D02*
X427000Y178642D01*
X427000Y179341D02*
X424200Y179341D01*
X430700Y173050D02*
X433500Y173050D01*
X430700Y173050D02*
X430700Y179350D01*
X433500Y179350D01*
X433500Y173050D01*
X433500Y173749D02*
X430700Y173749D01*
X430700Y174448D02*
X433500Y174448D01*
X433500Y175147D02*
X430700Y175147D01*
X430700Y175846D02*
X433500Y175846D01*
X433500Y176545D02*
X430700Y176545D01*
X430700Y177244D02*
X433500Y177244D01*
X433500Y177943D02*
X430700Y177943D01*
X430700Y178642D02*
X433500Y178642D01*
X433500Y179341D02*
X430700Y179341D01*
X437200Y173050D02*
X440000Y173050D01*
X437200Y173050D02*
X437200Y179350D01*
X440000Y179350D01*
X440000Y173050D01*
X440000Y173749D02*
X437200Y173749D01*
X437200Y174448D02*
X440000Y174448D01*
X440000Y175147D02*
X437200Y175147D01*
X437200Y175846D02*
X440000Y175846D01*
X440000Y176545D02*
X437200Y176545D01*
X437200Y177244D02*
X440000Y177244D01*
X440000Y177943D02*
X437200Y177943D01*
X437200Y178642D02*
X440000Y178642D01*
X440000Y179341D02*
X437200Y179341D01*
X442950Y182300D02*
X449250Y182300D01*
X442950Y182300D02*
X442950Y185100D01*
X449250Y185100D01*
X449250Y182300D01*
X449250Y182999D02*
X442950Y182999D01*
X442950Y183698D02*
X449250Y183698D01*
X449250Y184397D02*
X442950Y184397D01*
X442950Y185096D02*
X449250Y185096D01*
X449250Y188800D02*
X442950Y188800D01*
X442950Y191600D01*
X449250Y191600D01*
X449250Y188800D01*
X449250Y189499D02*
X442950Y189499D01*
X442950Y190198D02*
X449250Y190198D01*
X449250Y190897D02*
X442950Y190897D01*
X442950Y191596D02*
X449250Y191596D01*
X449250Y195300D02*
X442950Y195300D01*
X442950Y198100D01*
X449250Y198100D01*
X449250Y195300D01*
X449250Y195999D02*
X442950Y195999D01*
X442950Y196698D02*
X449250Y196698D01*
X449250Y197397D02*
X442950Y197397D01*
X442950Y198096D02*
X449250Y198096D01*
X449250Y201800D02*
X442950Y201800D01*
X442950Y204600D01*
X449250Y204600D01*
X449250Y201800D01*
X449250Y202499D02*
X442950Y202499D01*
X442950Y203198D02*
X449250Y203198D01*
X449250Y203897D02*
X442950Y203897D01*
X442950Y204596D02*
X449250Y204596D01*
X449250Y208300D02*
X442950Y208300D01*
X442950Y211100D01*
X449250Y211100D01*
X449250Y208300D01*
X449250Y208999D02*
X442950Y208999D01*
X442950Y209698D02*
X449250Y209698D01*
X449250Y210397D02*
X442950Y210397D01*
X442950Y211096D02*
X449250Y211096D01*
X449250Y214800D02*
X442950Y214800D01*
X442950Y217600D01*
X449250Y217600D01*
X449250Y214800D01*
X449250Y215499D02*
X442950Y215499D01*
X442950Y216198D02*
X449250Y216198D01*
X449250Y216897D02*
X442950Y216897D01*
X442950Y217596D02*
X449250Y217596D01*
X449250Y221300D02*
X442950Y221300D01*
X442950Y224100D01*
X449250Y224100D01*
X449250Y221300D01*
X449250Y221999D02*
X442950Y221999D01*
X442950Y222698D02*
X449250Y222698D01*
X449250Y223397D02*
X442950Y223397D01*
X442950Y224096D02*
X449250Y224096D01*
X440000Y227050D02*
X437200Y227050D01*
X437200Y233350D01*
X440000Y233350D01*
X440000Y227050D01*
X440000Y227749D02*
X437200Y227749D01*
X437200Y228448D02*
X440000Y228448D01*
X440000Y229147D02*
X437200Y229147D01*
X437200Y229846D02*
X440000Y229846D01*
X440000Y230545D02*
X437200Y230545D01*
X437200Y231244D02*
X440000Y231244D01*
X440000Y231943D02*
X437200Y231943D01*
X437200Y232642D02*
X440000Y232642D01*
X440000Y233341D02*
X437200Y233341D01*
X433500Y227050D02*
X430700Y227050D01*
X430700Y233350D01*
X433500Y233350D01*
X433500Y227050D01*
X433500Y227749D02*
X430700Y227749D01*
X430700Y228448D02*
X433500Y228448D01*
X433500Y229147D02*
X430700Y229147D01*
X430700Y229846D02*
X433500Y229846D01*
X433500Y230545D02*
X430700Y230545D01*
X430700Y231244D02*
X433500Y231244D01*
X433500Y231943D02*
X430700Y231943D01*
X430700Y232642D02*
X433500Y232642D01*
X433500Y233341D02*
X430700Y233341D01*
X427000Y227050D02*
X424200Y227050D01*
X424200Y233350D01*
X427000Y233350D01*
X427000Y227050D01*
X427000Y227749D02*
X424200Y227749D01*
X424200Y228448D02*
X427000Y228448D01*
X427000Y229147D02*
X424200Y229147D01*
X424200Y229846D02*
X427000Y229846D01*
X427000Y230545D02*
X424200Y230545D01*
X424200Y231244D02*
X427000Y231244D01*
X427000Y231943D02*
X424200Y231943D01*
X424200Y232642D02*
X427000Y232642D01*
X427000Y233341D02*
X424200Y233341D01*
X420500Y227050D02*
X417700Y227050D01*
X417700Y233350D01*
X420500Y233350D01*
X420500Y227050D01*
X420500Y227749D02*
X417700Y227749D01*
X417700Y228448D02*
X420500Y228448D01*
X420500Y229147D02*
X417700Y229147D01*
X417700Y229846D02*
X420500Y229846D01*
X420500Y230545D02*
X417700Y230545D01*
X417700Y231244D02*
X420500Y231244D01*
X420500Y231943D02*
X417700Y231943D01*
X417700Y232642D02*
X420500Y232642D01*
X420500Y233341D02*
X417700Y233341D01*
X414000Y227050D02*
X411200Y227050D01*
X411200Y233350D01*
X414000Y233350D01*
X414000Y227050D01*
X414000Y227749D02*
X411200Y227749D01*
X411200Y228448D02*
X414000Y228448D01*
X414000Y229147D02*
X411200Y229147D01*
X411200Y229846D02*
X414000Y229846D01*
X414000Y230545D02*
X411200Y230545D01*
X411200Y231244D02*
X414000Y231244D01*
X414000Y231943D02*
X411200Y231943D01*
X411200Y232642D02*
X414000Y232642D01*
X414000Y233341D02*
X411200Y233341D01*
X407500Y227050D02*
X404700Y227050D01*
X404700Y233350D01*
X407500Y233350D01*
X407500Y227050D01*
X407500Y227749D02*
X404700Y227749D01*
X404700Y228448D02*
X407500Y228448D01*
X407500Y229147D02*
X404700Y229147D01*
X404700Y229846D02*
X407500Y229846D01*
X407500Y230545D02*
X404700Y230545D01*
X404700Y231244D02*
X407500Y231244D01*
X407500Y231943D02*
X404700Y231943D01*
X404700Y232642D02*
X407500Y232642D01*
X407500Y233341D02*
X404700Y233341D01*
X401000Y227050D02*
X398200Y227050D01*
X398200Y233350D01*
X401000Y233350D01*
X401000Y227050D01*
X401000Y227749D02*
X398200Y227749D01*
X398200Y228448D02*
X401000Y228448D01*
X401000Y229147D02*
X398200Y229147D01*
X398200Y229846D02*
X401000Y229846D01*
X401000Y230545D02*
X398200Y230545D01*
X398200Y231244D02*
X401000Y231244D01*
X401000Y231943D02*
X398200Y231943D01*
X398200Y232642D02*
X401000Y232642D01*
X401000Y233341D02*
X398200Y233341D01*
D12*
X404300Y188400D02*
X433900Y188400D01*
X404300Y188400D02*
X404300Y218000D01*
X433900Y218000D01*
X433900Y188400D01*
X433900Y195799D02*
X404300Y195799D01*
X404300Y203198D02*
X433900Y203198D01*
X433900Y210597D02*
X404300Y210597D01*
X404300Y217996D02*
X433900Y217996D01*
D13*
X48260Y116586D02*
X48260Y96774D01*
X76200Y96774D02*
X76200Y116586D01*
X104140Y116586D02*
X104140Y96774D01*
X132080Y96774D02*
X132080Y116586D01*
X132080Y282194D02*
X132080Y302006D01*
X104140Y302006D02*
X104140Y282194D01*
X76200Y282194D02*
X76200Y302006D01*
X48560Y301830D02*
X48560Y282018D01*
X256794Y203200D02*
X276606Y203200D01*
X276606Y241300D02*
X256794Y241300D01*
X256794Y279400D02*
X276606Y279400D01*
X276606Y317500D02*
X256794Y317500D01*
X304800Y345694D02*
X304800Y365506D01*
X342900Y365506D02*
X342900Y345694D01*
X381000Y345694D02*
X381000Y365506D01*
X419100Y365506D02*
X419100Y345694D01*
X457200Y345694D02*
X457200Y365506D01*
X495300Y365506D02*
X495300Y345694D01*
X533400Y345694D02*
X533400Y365506D01*
X574294Y317500D02*
X594106Y317500D01*
X594106Y279400D02*
X574294Y279400D01*
X574294Y241300D02*
X594106Y241300D01*
X594106Y203200D02*
X574294Y203200D01*
X574294Y165100D02*
X594106Y165100D01*
X594106Y127000D02*
X574294Y127000D01*
X574294Y88900D02*
X594106Y88900D01*
X533400Y60706D02*
X533400Y40894D01*
X495300Y40894D02*
X495300Y60706D01*
X457200Y60706D02*
X457200Y40894D01*
X419100Y40894D02*
X419100Y60706D01*
X381000Y60706D02*
X381000Y40894D01*
X342900Y40894D02*
X342900Y60706D01*
X304800Y60706D02*
X304800Y40894D01*
X276606Y88900D02*
X256794Y88900D01*
X256794Y127000D02*
X276606Y127000D01*
X276606Y165100D02*
X256794Y165100D01*
D14*
X79150Y224450D03*
X85650Y224450D03*
X92150Y224450D03*
X98650Y224450D03*
X98650Y181950D03*
X92150Y181950D03*
X85650Y181950D03*
X79150Y181950D03*
D10*
X48260Y145980D02*
X48260Y106680D01*
X48260Y145980D02*
X79150Y181950D01*
X85650Y181950D02*
X76200Y106680D01*
X92150Y224450D02*
X104140Y292100D01*
X76200Y292100D02*
X85650Y224450D01*
X132080Y145980D02*
X132080Y106680D01*
X132080Y145980D02*
X98650Y181950D01*
X98650Y224450D02*
X132080Y252800D01*
X132080Y292100D01*
X92150Y181950D02*
X104140Y106680D01*
X79150Y224450D02*
X49460Y251460D01*
X48560Y291924D01*
X419100Y176200D02*
X419100Y50800D01*
X412600Y82400D02*
X412600Y176200D01*
X412600Y82400D02*
X381000Y50800D01*
X406100Y114000D02*
X406100Y176200D01*
X406100Y114000D02*
X342900Y50800D01*
X304800Y81400D02*
X399600Y176200D01*
X304800Y81400D02*
X304800Y50800D01*
X297300Y88900D02*
X392100Y183700D01*
X297300Y88900D02*
X266700Y88900D01*
X329900Y190200D02*
X392100Y190200D01*
X329900Y190200D02*
X266700Y127000D01*
X298300Y196700D02*
X392100Y196700D01*
X298300Y196700D02*
X266700Y165100D01*
X266700Y203200D02*
X392100Y203200D01*
X392100Y209700D02*
X298300Y209700D01*
X266700Y241300D01*
X329900Y216200D02*
X392100Y216200D01*
X329900Y216200D02*
X266700Y279400D01*
X297300Y317500D02*
X392100Y222700D01*
X297300Y317500D02*
X266700Y317500D01*
X304800Y325000D02*
X399600Y230200D01*
X304800Y325000D02*
X304800Y355600D01*
X406100Y292400D02*
X406100Y230200D01*
X406100Y292400D02*
X342900Y355600D01*
X412600Y324000D02*
X412600Y230200D01*
X412600Y324000D02*
X381000Y355600D01*
X419100Y355600D02*
X419100Y230200D01*
X425600Y230200D02*
X425600Y324000D01*
X457200Y355600D01*
X432100Y292400D02*
X432100Y230200D01*
X432100Y292400D02*
X495300Y355600D01*
X533400Y325000D02*
X438600Y230200D01*
X533400Y325000D02*
X533400Y355600D01*
X540900Y317500D02*
X446100Y222700D01*
X540900Y317500D02*
X584200Y317500D01*
X521000Y216200D02*
X446100Y216200D01*
X521000Y216200D02*
X584200Y279400D01*
X552600Y209700D02*
X446100Y209700D01*
X552600Y209700D02*
X584200Y241300D01*
X584200Y203200D02*
X446100Y203200D01*
X446100Y196700D02*
X552600Y196700D01*
X584200Y165100D01*
X521000Y190200D02*
X446100Y190200D01*
X521000Y190200D02*
X584200Y127000D01*
X540900Y88900D02*
X446100Y183700D01*
X540900Y88900D02*
X584200Y88900D01*
X533400Y81400D02*
X438600Y176200D01*
X533400Y81400D02*
X533400Y50800D01*
X432100Y114000D02*
X432100Y176200D01*
X432100Y114000D02*
X495300Y50800D01*
X425600Y82400D02*
X425600Y176200D01*
X425600Y82400D02*
X457200Y50800D01*
M02*
