M48
;GenerationSoftware,Autodesk,EAGLE,9.0.1*%
;CreationDate,2018-06-07T21:36:32Z*%
FMAT,2
ICI,OFF
METRIC,TZ,000.000
T1C1.321
%
G90
M71
T1
X4826Y10668
X7620Y10668
X10414Y10668
X13208Y10668
X13208Y29210
X10414Y29210
X7620Y29210
X4856Y29192
X26670Y20320
X26670Y24130
X26670Y27940
X26670Y31750
X30480Y35560
X34290Y35560
X38100Y35560
X41910Y35560
X45720Y35560
X49530Y35560
X53340Y35560
X58420Y31750
X58420Y27940
X58420Y24130
X58420Y20320
X58420Y16510
X58420Y12700
X58420Y8890
X53340Y5080
X49530Y5080
X45720Y5080
X41910Y5080
X38100Y5080
X34290Y5080
X30480Y5080
X26670Y8890
X26670Y12700
X26670Y16510
M30