G04 EAGLE Gerber X2 export*
%TF.Part,Single*%
%TF.FileFunction,Soldermask,Top,1*%
%TF.FilePolarity,Negative*%
%TF.GenerationSoftware,Autodesk,EAGLE,9.0.1*%
%TF.CreationDate,2018-06-07T21:36:32Z*%
G75*
%MOMM*%
%FSLAX34Y34*%
%LPD*%
%AMOC8*
5,1,8,0,0,1.08239X$1,22.5*%
G01*
%ADD10R,0.708500X0.364000*%
%ADD11R,0.364000X0.708400*%
%ADD12R,0.708400X0.364000*%
%ADD13R,3.718000X3.718000*%
%ADD14C,2.184400*%
%ADD15R,0.583200X1.253200*%


D10*
X392093Y222700D03*
X392093Y216200D03*
X392093Y209700D03*
X392093Y203200D03*
X392093Y196700D03*
X392093Y190200D03*
X392093Y183700D03*
D11*
X399600Y176193D03*
X406100Y176193D03*
X412600Y176193D03*
X419100Y176193D03*
X425600Y176193D03*
X432100Y176193D03*
X438600Y176193D03*
D12*
X446107Y183700D03*
X446107Y190200D03*
X446107Y196700D03*
X446107Y203200D03*
X446107Y209700D03*
X446107Y216200D03*
X446107Y222700D03*
D11*
X438600Y230207D03*
X432100Y230207D03*
X425600Y230207D03*
X419100Y230207D03*
X412600Y230207D03*
X406100Y230207D03*
X399600Y230207D03*
D13*
X419100Y203200D03*
D14*
X48260Y116586D02*
X48260Y96774D01*
X76200Y96774D02*
X76200Y116586D01*
X104140Y116586D02*
X104140Y96774D01*
X132080Y96774D02*
X132080Y116586D01*
X132080Y282194D02*
X132080Y302006D01*
X104140Y302006D02*
X104140Y282194D01*
X76200Y282194D02*
X76200Y302006D01*
X48560Y301830D02*
X48560Y282018D01*
X256794Y203200D02*
X276606Y203200D01*
X276606Y241300D02*
X256794Y241300D01*
X256794Y279400D02*
X276606Y279400D01*
X276606Y317500D02*
X256794Y317500D01*
X304800Y345694D02*
X304800Y365506D01*
X342900Y365506D02*
X342900Y345694D01*
X381000Y345694D02*
X381000Y365506D01*
X419100Y365506D02*
X419100Y345694D01*
X457200Y345694D02*
X457200Y365506D01*
X495300Y365506D02*
X495300Y345694D01*
X533400Y345694D02*
X533400Y365506D01*
X574294Y317500D02*
X594106Y317500D01*
X594106Y279400D02*
X574294Y279400D01*
X574294Y241300D02*
X594106Y241300D01*
X594106Y203200D02*
X574294Y203200D01*
X574294Y165100D02*
X594106Y165100D01*
X594106Y127000D02*
X574294Y127000D01*
X574294Y88900D02*
X594106Y88900D01*
X533400Y60706D02*
X533400Y40894D01*
X495300Y40894D02*
X495300Y60706D01*
X457200Y60706D02*
X457200Y40894D01*
X419100Y40894D02*
X419100Y60706D01*
X381000Y60706D02*
X381000Y40894D01*
X342900Y40894D02*
X342900Y60706D01*
X304800Y60706D02*
X304800Y40894D01*
X276606Y88900D02*
X256794Y88900D01*
X256794Y127000D02*
X276606Y127000D01*
X276606Y165100D02*
X256794Y165100D01*
D15*
X79150Y224450D03*
X85650Y224450D03*
X92150Y224450D03*
X98650Y224450D03*
X98650Y181950D03*
X92150Y181950D03*
X85650Y181950D03*
X79150Y181950D03*
M02*
